# xmcd
# 
# Track frame offsets:
#     150
#     29008
#     49115
#     84468
#     117145
#     143703
#     172736
#     196097
#     222548
#     244365
# 
# Disc length: 3528
# 
# Revision: 1
# Processed by: cddbd v1.5.2PL0 Copyright (c) Steve Scherf et al.
# Submitted via: fre:ac v1.0.31
# 
DISCID=890dc60a
DTITLE=Widespread Panic - Street Dogs
DYEAR=2015
DGENRE=Rock/Pop
TTITLE0=Sell Sell
TTITLE1=Steven’s Cat
TTITLE2=Cease Fire
TTITLE3=Jamais Vu (The World Has Changed)
TTITLE4=Angels Don’t Sing the Blues
TTITLE5=Honky Red
TTITLE6=The Poorhouse of Positive Thinking
TTITLE7=Welcome to My World
TTITLE8=Tail Dragger
TTITLE9=Street Dogs for Breakfast
EXTD=YEAR: 2015
EXTT0=
EXTT1=
EXTT2=
EXTT3=
EXTT4=
EXTT5=
EXTT6=
EXTT7=
EXTT8=
EXTT9=
PLAYORDER=
